<mxfile host="app.diagrams.net" modified="2023-05-30T03:38:06.104Z" agent="Mozilla/5.0 (Windows NT 10.0; Win64; x64) AppleWebKit/537.36 (KHTML, like Gecko) Chrome/113.0.0.0 Safari/537.36 Edg/113.0.1774.57" etag="lDGZ7EliLMR7QnuJBoQB" version="21.3.2" type="device">
  <diagram id="0-38aG0TQCoQ0g5l661d" name="Page-1">
    <mxGraphModel dx="2474" dy="1634" grid="1" gridSize="10" guides="1" tooltips="1" connect="1" arrows="1" fold="1" page="0" pageScale="1" pageWidth="850" pageHeight="1100" math="0" shadow="0">
      <root>
        <mxCell id="0" />
        <mxCell id="1" parent="0" />
        <mxCell id="TzvrdUyDiU6Etpf87pun-2" value="VOLTER" style="rounded=0;whiteSpace=wrap;html=1;" parent="1" vertex="1">
          <mxGeometry x="262.5" y="40" width="120" height="60" as="geometry" />
        </mxCell>
        <mxCell id="TzvrdUyDiU6Etpf87pun-3" value="CANDIDATE" style="rounded=0;whiteSpace=wrap;html=1;" parent="1" vertex="1">
          <mxGeometry x="262.5" y="-200" width="120" height="60" as="geometry" />
        </mxCell>
        <mxCell id="TzvrdUyDiU6Etpf87pun-4" value="&lt;u&gt;POLLPV_ID&lt;/u&gt;" style="ellipse;whiteSpace=wrap;html=1;" parent="1" vertex="1">
          <mxGeometry x="-310" y="-480" width="100" height="30" as="geometry" />
        </mxCell>
        <mxCell id="TzvrdUyDiU6Etpf87pun-6" value="POLLPV_NAME" style="ellipse;whiteSpace=wrap;html=1;" parent="1" vertex="1">
          <mxGeometry x="-170" y="-480" width="130" height="30" as="geometry" />
        </mxCell>
        <mxCell id="TzvrdUyDiU6Etpf87pun-7" value="POLLING_PROVINCE" style="rounded=0;whiteSpace=wrap;html=1;" parent="1" vertex="1">
          <mxGeometry x="-260" y="-410" width="150" height="50" as="geometry" />
        </mxCell>
        <mxCell id="TzvrdUyDiU6Etpf87pun-8" value="POLLING_DISTRICT" style="rounded=0;whiteSpace=wrap;html=1;" parent="1" vertex="1">
          <mxGeometry x="-255" y="-200" width="140" height="60" as="geometry" />
        </mxCell>
        <mxCell id="TzvrdUyDiU6Etpf87pun-10" value="&lt;u&gt;POLLDT_ID&lt;/u&gt;" style="ellipse;whiteSpace=wrap;html=1;" parent="1" vertex="1">
          <mxGeometry x="-410" y="-190" width="130" height="30" as="geometry" />
        </mxCell>
        <mxCell id="TzvrdUyDiU6Etpf87pun-11" value="POLLDT_NAME" style="ellipse;whiteSpace=wrap;html=1;" parent="1" vertex="1">
          <mxGeometry x="-400" y="-250" width="130" height="30" as="geometry" />
        </mxCell>
        <mxCell id="TzvrdUyDiU6Etpf87pun-12" value="POLLING_STATION" style="rounded=0;whiteSpace=wrap;html=1;" parent="1" vertex="1">
          <mxGeometry x="-245" y="40" width="120" height="60" as="geometry" />
        </mxCell>
        <mxCell id="TzvrdUyDiU6Etpf87pun-14" value="&lt;u&gt;POLLST_ID&lt;/u&gt;" style="ellipse;whiteSpace=wrap;html=1;" parent="1" vertex="1">
          <mxGeometry x="-445" y="-30" width="90" height="40" as="geometry" />
        </mxCell>
        <mxCell id="TzvrdUyDiU6Etpf87pun-16" value="POLLST_NAME" style="ellipse;whiteSpace=wrap;html=1;" parent="1" vertex="1">
          <mxGeometry x="-460" y="50" width="120" height="30" as="geometry" />
        </mxCell>
        <mxCell id="TzvrdUyDiU6Etpf87pun-18" value="POLLST_PERSON" style="ellipse;whiteSpace=wrap;html=1;" parent="1" vertex="1">
          <mxGeometry x="-360" y="210" width="130" height="40" as="geometry" />
        </mxCell>
        <mxCell id="TzvrdUyDiU6Etpf87pun-19" value="POLLST_ADDRESS" style="ellipse;whiteSpace=wrap;html=1;" parent="1" vertex="1">
          <mxGeometry x="-460" y="130" width="140" height="40" as="geometry" />
        </mxCell>
        <mxCell id="TzvrdUyDiU6Etpf87pun-20" value="&lt;u&gt;VOLTER_ID&lt;br&gt;&lt;/u&gt;" style="ellipse;whiteSpace=wrap;html=1;" parent="1" vertex="1">
          <mxGeometry x="480" y="100" width="100" height="40" as="geometry" />
        </mxCell>
        <mxCell id="TzvrdUyDiU6Etpf87pun-21" value="VOTER_IDCARD" style="ellipse;whiteSpace=wrap;html=1;" parent="1" vertex="1">
          <mxGeometry x="340" y="205" width="120" height="40" as="geometry" />
        </mxCell>
        <mxCell id="TzvrdUyDiU6Etpf87pun-22" value="VOTER_NAME" style="ellipse;whiteSpace=wrap;html=1;" parent="1" vertex="1">
          <mxGeometry x="210" y="200" width="110" height="40" as="geometry" />
        </mxCell>
        <mxCell id="TzvrdUyDiU6Etpf87pun-23" value="VOLTER_GENDER" style="ellipse;whiteSpace=wrap;html=1;" parent="1" vertex="1">
          <mxGeometry x="465" y="170" width="130" height="40" as="geometry" />
        </mxCell>
        <mxCell id="TzvrdUyDiU6Etpf87pun-24" value="&lt;u&gt;CDD_ID&lt;/u&gt;" style="ellipse;whiteSpace=wrap;html=1;" parent="1" vertex="1">
          <mxGeometry x="262.5" y="-330" width="75" height="30" as="geometry" />
        </mxCell>
        <mxCell id="TzvrdUyDiU6Etpf87pun-25" value="CDD_NAME" style="ellipse;whiteSpace=wrap;html=1;" parent="1" vertex="1">
          <mxGeometry x="360" y="-330" width="90" height="35" as="geometry" />
        </mxCell>
        <mxCell id="TzvrdUyDiU6Etpf87pun-26" value="CDD_ADDRESS" style="ellipse;whiteSpace=wrap;html=1;" parent="1" vertex="1">
          <mxGeometry x="440" y="-290" width="110" height="40" as="geometry" />
        </mxCell>
        <mxCell id="TzvrdUyDiU6Etpf87pun-27" value="CDD_SCORE" style="ellipse;whiteSpace=wrap;html=1;" parent="1" vertex="1">
          <mxGeometry x="460" y="-190" width="105" height="40" as="geometry" />
        </mxCell>
        <mxCell id="TzvrdUyDiU6Etpf87pun-28" value="" style="endArrow=none;html=1;rounded=0;entryX=0.25;entryY=0;entryDx=0;entryDy=0;exitX=0.5;exitY=1;exitDx=0;exitDy=0;" parent="1" source="TzvrdUyDiU6Etpf87pun-4" target="TzvrdUyDiU6Etpf87pun-7" edge="1">
          <mxGeometry width="50" height="50" relative="1" as="geometry">
            <mxPoint x="150" y="-220" as="sourcePoint" />
            <mxPoint x="200" y="-270" as="targetPoint" />
          </mxGeometry>
        </mxCell>
        <mxCell id="TzvrdUyDiU6Etpf87pun-29" value="" style="endArrow=none;html=1;rounded=0;entryX=0.75;entryY=0;entryDx=0;entryDy=0;exitX=0.5;exitY=1;exitDx=0;exitDy=0;" parent="1" source="TzvrdUyDiU6Etpf87pun-6" target="TzvrdUyDiU6Etpf87pun-7" edge="1">
          <mxGeometry width="50" height="50" relative="1" as="geometry">
            <mxPoint x="150" y="-220" as="sourcePoint" />
            <mxPoint x="200" y="-270" as="targetPoint" />
          </mxGeometry>
        </mxCell>
        <mxCell id="TzvrdUyDiU6Etpf87pun-30" value="" style="endArrow=none;html=1;rounded=0;entryX=0;entryY=0;entryDx=0;entryDy=0;exitX=0.5;exitY=1;exitDx=0;exitDy=0;" parent="1" source="TzvrdUyDiU6Etpf87pun-11" target="TzvrdUyDiU6Etpf87pun-8" edge="1">
          <mxGeometry width="50" height="50" relative="1" as="geometry">
            <mxPoint x="150" y="-90" as="sourcePoint" />
            <mxPoint x="200" y="-140" as="targetPoint" />
          </mxGeometry>
        </mxCell>
        <mxCell id="TzvrdUyDiU6Etpf87pun-31" value="" style="endArrow=none;html=1;rounded=0;exitX=0;exitY=1;exitDx=0;exitDy=0;entryX=0.5;entryY=1;entryDx=0;entryDy=0;" parent="1" source="TzvrdUyDiU6Etpf87pun-8" target="TzvrdUyDiU6Etpf87pun-10" edge="1">
          <mxGeometry width="50" height="50" relative="1" as="geometry">
            <mxPoint x="150" y="-90" as="sourcePoint" />
            <mxPoint x="200" y="-140" as="targetPoint" />
          </mxGeometry>
        </mxCell>
        <mxCell id="TzvrdUyDiU6Etpf87pun-32" value="มี" style="rhombus;whiteSpace=wrap;html=1;" parent="1" vertex="1">
          <mxGeometry x="-225" y="-320" width="80" height="80" as="geometry" />
        </mxCell>
        <mxCell id="TzvrdUyDiU6Etpf87pun-33" value="" style="endArrow=none;html=1;rounded=0;entryX=0.5;entryY=1;entryDx=0;entryDy=0;exitX=0.5;exitY=0;exitDx=0;exitDy=0;" parent="1" source="TzvrdUyDiU6Etpf87pun-32" target="TzvrdUyDiU6Etpf87pun-7" edge="1">
          <mxGeometry width="50" height="50" relative="1" as="geometry">
            <mxPoint x="150" y="-90" as="sourcePoint" />
            <mxPoint x="200" y="-140" as="targetPoint" />
          </mxGeometry>
        </mxCell>
        <mxCell id="TzvrdUyDiU6Etpf87pun-34" value="" style="endArrow=none;html=1;rounded=0;entryX=0.5;entryY=1;entryDx=0;entryDy=0;exitX=0.5;exitY=0;exitDx=0;exitDy=0;" parent="1" source="TzvrdUyDiU6Etpf87pun-8" target="TzvrdUyDiU6Etpf87pun-32" edge="1">
          <mxGeometry width="50" height="50" relative="1" as="geometry">
            <mxPoint x="-175" y="-270" as="sourcePoint" />
            <mxPoint x="-175" y="-350" as="targetPoint" />
          </mxGeometry>
        </mxCell>
        <mxCell id="TzvrdUyDiU6Etpf87pun-35" value="มี" style="rhombus;whiteSpace=wrap;html=1;" parent="1" vertex="1">
          <mxGeometry x="-225" y="-90" width="80" height="80" as="geometry" />
        </mxCell>
        <mxCell id="TzvrdUyDiU6Etpf87pun-36" value="" style="endArrow=none;html=1;rounded=0;entryX=0.5;entryY=1;entryDx=0;entryDy=0;exitX=0.5;exitY=0;exitDx=0;exitDy=0;" parent="1" source="TzvrdUyDiU6Etpf87pun-35" target="TzvrdUyDiU6Etpf87pun-8" edge="1">
          <mxGeometry width="50" height="50" relative="1" as="geometry">
            <mxPoint x="150" y="-90" as="sourcePoint" />
            <mxPoint x="200" y="-140" as="targetPoint" />
          </mxGeometry>
        </mxCell>
        <mxCell id="TzvrdUyDiU6Etpf87pun-37" value="" style="endArrow=none;html=1;rounded=0;entryX=0.5;entryY=1;entryDx=0;entryDy=0;exitX=0.5;exitY=0;exitDx=0;exitDy=0;" parent="1" source="TzvrdUyDiU6Etpf87pun-12" target="TzvrdUyDiU6Etpf87pun-35" edge="1">
          <mxGeometry width="50" height="50" relative="1" as="geometry">
            <mxPoint x="150" y="-90" as="sourcePoint" />
            <mxPoint x="200" y="-140" as="targetPoint" />
          </mxGeometry>
        </mxCell>
        <mxCell id="TzvrdUyDiU6Etpf87pun-38" value="ลงคะแนนเลือกตั้ง" style="rhombus;whiteSpace=wrap;html=1;" parent="1" vertex="1">
          <mxGeometry x="-15" y="35" width="135" height="70" as="geometry" />
        </mxCell>
        <mxCell id="TzvrdUyDiU6Etpf87pun-39" value="" style="endArrow=none;html=1;rounded=0;exitX=0;exitY=0;exitDx=0;exitDy=0;entryX=1;entryY=0.5;entryDx=0;entryDy=0;" parent="1" source="TzvrdUyDiU6Etpf87pun-12" target="TzvrdUyDiU6Etpf87pun-14" edge="1">
          <mxGeometry width="50" height="50" relative="1" as="geometry">
            <mxPoint x="150" y="40" as="sourcePoint" />
            <mxPoint x="200" y="-10" as="targetPoint" />
          </mxGeometry>
        </mxCell>
        <mxCell id="TzvrdUyDiU6Etpf87pun-40" value="" style="endArrow=none;html=1;rounded=0;entryX=1;entryY=0.5;entryDx=0;entryDy=0;exitX=0;exitY=0.5;exitDx=0;exitDy=0;" parent="1" source="TzvrdUyDiU6Etpf87pun-12" target="TzvrdUyDiU6Etpf87pun-16" edge="1">
          <mxGeometry width="50" height="50" relative="1" as="geometry">
            <mxPoint x="-250" y="30" as="sourcePoint" />
            <mxPoint x="200" y="-10" as="targetPoint" />
          </mxGeometry>
        </mxCell>
        <mxCell id="TzvrdUyDiU6Etpf87pun-41" value="" style="endArrow=none;html=1;rounded=0;exitX=1;exitY=0.5;exitDx=0;exitDy=0;entryX=0;entryY=1;entryDx=0;entryDy=0;" parent="1" source="TzvrdUyDiU6Etpf87pun-19" target="TzvrdUyDiU6Etpf87pun-12" edge="1">
          <mxGeometry width="50" height="50" relative="1" as="geometry">
            <mxPoint x="150" y="40" as="sourcePoint" />
            <mxPoint x="-250" y="60" as="targetPoint" />
          </mxGeometry>
        </mxCell>
        <mxCell id="TzvrdUyDiU6Etpf87pun-42" value="" style="endArrow=none;html=1;rounded=0;exitX=1;exitY=0.5;exitDx=0;exitDy=0;entryX=0.25;entryY=1;entryDx=0;entryDy=0;" parent="1" source="TzvrdUyDiU6Etpf87pun-18" target="TzvrdUyDiU6Etpf87pun-12" edge="1">
          <mxGeometry width="50" height="50" relative="1" as="geometry">
            <mxPoint x="150" y="40" as="sourcePoint" />
            <mxPoint x="200" y="-10" as="targetPoint" />
          </mxGeometry>
        </mxCell>
        <mxCell id="TzvrdUyDiU6Etpf87pun-43" value="ELECTION_DATE" style="ellipse;whiteSpace=wrap;html=1;" parent="1" vertex="1">
          <mxGeometry x="-7.5" y="210" width="120" height="30" as="geometry" />
        </mxCell>
        <mxCell id="TzvrdUyDiU6Etpf87pun-44" value="" style="endArrow=none;html=1;rounded=0;entryX=0.5;entryY=1;entryDx=0;entryDy=0;exitX=0.5;exitY=0;exitDx=0;exitDy=0;" parent="1" source="TzvrdUyDiU6Etpf87pun-43" target="TzvrdUyDiU6Etpf87pun-38" edge="1">
          <mxGeometry width="50" height="50" relative="1" as="geometry">
            <mxPoint x="150" y="170" as="sourcePoint" />
            <mxPoint x="200" y="120" as="targetPoint" />
          </mxGeometry>
        </mxCell>
        <mxCell id="TzvrdUyDiU6Etpf87pun-45" value="" style="endArrow=none;html=1;rounded=0;entryX=1;entryY=0.5;entryDx=0;entryDy=0;exitX=0;exitY=0.5;exitDx=0;exitDy=0;" parent="1" source="TzvrdUyDiU6Etpf87pun-2" target="TzvrdUyDiU6Etpf87pun-38" edge="1">
          <mxGeometry width="50" height="50" relative="1" as="geometry">
            <mxPoint x="150" y="170" as="sourcePoint" />
            <mxPoint x="200" y="120" as="targetPoint" />
          </mxGeometry>
        </mxCell>
        <mxCell id="TzvrdUyDiU6Etpf87pun-46" value="" style="endArrow=none;html=1;rounded=0;entryX=0;entryY=0.5;entryDx=0;entryDy=0;exitX=1;exitY=0.5;exitDx=0;exitDy=0;" parent="1" source="TzvrdUyDiU6Etpf87pun-12" target="TzvrdUyDiU6Etpf87pun-38" edge="1">
          <mxGeometry width="50" height="50" relative="1" as="geometry">
            <mxPoint x="150" y="170" as="sourcePoint" />
            <mxPoint x="200" y="120" as="targetPoint" />
          </mxGeometry>
        </mxCell>
        <mxCell id="TzvrdUyDiU6Etpf87pun-47" value="" style="endArrow=none;html=1;rounded=0;entryX=0.996;entryY=0.395;entryDx=0;entryDy=0;exitX=0.5;exitY=0;exitDx=0;exitDy=0;entryPerimeter=0;" parent="1" source="TzvrdUyDiU6Etpf87pun-20" target="TzvrdUyDiU6Etpf87pun-2" edge="1">
          <mxGeometry width="50" height="50" relative="1" as="geometry">
            <mxPoint x="150" y="170" as="sourcePoint" />
            <mxPoint x="200" y="120" as="targetPoint" />
          </mxGeometry>
        </mxCell>
        <mxCell id="TzvrdUyDiU6Etpf87pun-48" value="" style="endArrow=none;html=1;rounded=0;entryX=0.563;entryY=1.045;entryDx=0;entryDy=0;exitX=0;exitY=0.5;exitDx=0;exitDy=0;entryPerimeter=0;" parent="1" source="TzvrdUyDiU6Etpf87pun-23" target="TzvrdUyDiU6Etpf87pun-2" edge="1">
          <mxGeometry width="50" height="50" relative="1" as="geometry">
            <mxPoint x="150" y="170" as="sourcePoint" />
            <mxPoint x="200" y="120" as="targetPoint" />
          </mxGeometry>
        </mxCell>
        <mxCell id="TzvrdUyDiU6Etpf87pun-49" value="" style="endArrow=none;html=1;rounded=0;entryX=0;entryY=1;entryDx=0;entryDy=0;exitX=0.5;exitY=0;exitDx=0;exitDy=0;" parent="1" source="TzvrdUyDiU6Etpf87pun-22" target="TzvrdUyDiU6Etpf87pun-2" edge="1">
          <mxGeometry width="50" height="50" relative="1" as="geometry">
            <mxPoint x="150" y="170" as="sourcePoint" />
            <mxPoint x="200" y="120" as="targetPoint" />
          </mxGeometry>
        </mxCell>
        <mxCell id="TzvrdUyDiU6Etpf87pun-50" value="" style="endArrow=none;html=1;rounded=0;entryX=0.25;entryY=1;entryDx=0;entryDy=0;exitX=0;exitY=0.5;exitDx=0;exitDy=0;" parent="1" source="TzvrdUyDiU6Etpf87pun-21" target="TzvrdUyDiU6Etpf87pun-2" edge="1">
          <mxGeometry width="50" height="50" relative="1" as="geometry">
            <mxPoint x="150" y="170" as="sourcePoint" />
            <mxPoint x="200" y="120" as="targetPoint" />
          </mxGeometry>
        </mxCell>
        <mxCell id="TzvrdUyDiU6Etpf87pun-51" value="ลงสมัครเลือกตั้ง" style="rhombus;whiteSpace=wrap;html=1;" parent="1" vertex="1">
          <mxGeometry x="-16.25" y="-210" width="137.5" height="80" as="geometry" />
        </mxCell>
        <mxCell id="TzvrdUyDiU6Etpf87pun-53" value="" style="endArrow=none;html=1;rounded=0;entryX=0.5;entryY=1;entryDx=0;entryDy=0;exitX=0.75;exitY=0;exitDx=0;exitDy=0;" parent="1" source="TzvrdUyDiU6Etpf87pun-3" target="TzvrdUyDiU6Etpf87pun-25" edge="1">
          <mxGeometry width="50" height="50" relative="1" as="geometry">
            <mxPoint x="150" y="-220" as="sourcePoint" />
            <mxPoint x="200" y="-270" as="targetPoint" />
          </mxGeometry>
        </mxCell>
        <mxCell id="TzvrdUyDiU6Etpf87pun-54" value="" style="endArrow=none;html=1;rounded=0;entryX=0.5;entryY=1;entryDx=0;entryDy=0;exitX=0.5;exitY=0;exitDx=0;exitDy=0;" parent="1" source="TzvrdUyDiU6Etpf87pun-3" target="TzvrdUyDiU6Etpf87pun-24" edge="1">
          <mxGeometry width="50" height="50" relative="1" as="geometry">
            <mxPoint x="160" y="-210" as="sourcePoint" />
            <mxPoint x="210" y="-260" as="targetPoint" />
          </mxGeometry>
        </mxCell>
        <mxCell id="TzvrdUyDiU6Etpf87pun-55" value="" style="endArrow=none;html=1;rounded=0;entryX=0.5;entryY=1;entryDx=0;entryDy=0;exitX=1;exitY=0.25;exitDx=0;exitDy=0;" parent="1" source="TzvrdUyDiU6Etpf87pun-3" target="TzvrdUyDiU6Etpf87pun-26" edge="1">
          <mxGeometry width="50" height="50" relative="1" as="geometry">
            <mxPoint x="150" y="-220" as="sourcePoint" />
            <mxPoint x="200" y="-270" as="targetPoint" />
          </mxGeometry>
        </mxCell>
        <mxCell id="TzvrdUyDiU6Etpf87pun-56" value="" style="endArrow=none;html=1;rounded=0;entryX=1;entryY=0.75;entryDx=0;entryDy=0;exitX=0;exitY=0.5;exitDx=0;exitDy=0;" parent="1" source="TzvrdUyDiU6Etpf87pun-27" target="TzvrdUyDiU6Etpf87pun-3" edge="1">
          <mxGeometry width="50" height="50" relative="1" as="geometry">
            <mxPoint x="150" y="-220" as="sourcePoint" />
            <mxPoint x="200" y="-270" as="targetPoint" />
          </mxGeometry>
        </mxCell>
        <mxCell id="TzvrdUyDiU6Etpf87pun-57" value="" style="endArrow=none;html=1;rounded=0;exitX=1;exitY=0.5;exitDx=0;exitDy=0;entryX=0;entryY=0.5;entryDx=0;entryDy=0;" parent="1" source="TzvrdUyDiU6Etpf87pun-51" target="TzvrdUyDiU6Etpf87pun-3" edge="1">
          <mxGeometry width="50" height="50" relative="1" as="geometry">
            <mxPoint x="150" y="-90" as="sourcePoint" />
            <mxPoint x="200" y="-140" as="targetPoint" />
          </mxGeometry>
        </mxCell>
        <mxCell id="TzvrdUyDiU6Etpf87pun-58" value="" style="endArrow=none;html=1;rounded=0;exitX=1;exitY=0.5;exitDx=0;exitDy=0;entryX=0;entryY=0.5;entryDx=0;entryDy=0;" parent="1" source="TzvrdUyDiU6Etpf87pun-8" target="TzvrdUyDiU6Etpf87pun-51" edge="1">
          <mxGeometry width="50" height="50" relative="1" as="geometry">
            <mxPoint x="150" y="-90" as="sourcePoint" />
            <mxPoint x="200" y="-140" as="targetPoint" />
          </mxGeometry>
        </mxCell>
        <mxCell id="TzvrdUyDiU6Etpf87pun-59" value="M" style="text;html=1;strokeColor=none;fillColor=none;align=center;verticalAlign=middle;whiteSpace=wrap;rounded=0;" parent="1" vertex="1">
          <mxGeometry x="210" y="70" width="60" height="30" as="geometry" />
        </mxCell>
        <mxCell id="TzvrdUyDiU6Etpf87pun-60" value="1" style="text;html=1;strokeColor=none;fillColor=none;align=center;verticalAlign=middle;whiteSpace=wrap;rounded=0;" parent="1" vertex="1">
          <mxGeometry x="-135" y="70" width="60" height="30" as="geometry" />
        </mxCell>
        <mxCell id="TzvrdUyDiU6Etpf87pun-61" value="1" style="text;html=1;strokeColor=none;fillColor=none;align=center;verticalAlign=middle;whiteSpace=wrap;rounded=0;" parent="1" vertex="1">
          <mxGeometry x="-205" y="-357.5" width="60" height="30" as="geometry" />
        </mxCell>
        <mxCell id="TzvrdUyDiU6Etpf87pun-62" value="M" style="text;html=1;strokeColor=none;fillColor=none;align=center;verticalAlign=middle;whiteSpace=wrap;rounded=0;" parent="1" vertex="1">
          <mxGeometry x="-200" y="-230" width="60" height="30" as="geometry" />
        </mxCell>
        <mxCell id="TzvrdUyDiU6Etpf87pun-63" value="1" style="text;html=1;strokeColor=none;fillColor=none;align=center;verticalAlign=middle;whiteSpace=wrap;rounded=0;" parent="1" vertex="1">
          <mxGeometry x="-230" y="-140" width="60" height="30" as="geometry" />
        </mxCell>
        <mxCell id="TzvrdUyDiU6Etpf87pun-64" value="M" style="text;html=1;strokeColor=none;fillColor=none;align=center;verticalAlign=middle;whiteSpace=wrap;rounded=0;" parent="1" vertex="1">
          <mxGeometry x="-230" y="10" width="60" height="30" as="geometry" />
        </mxCell>
        <mxCell id="TzvrdUyDiU6Etpf87pun-65" value="1" style="text;html=1;strokeColor=none;fillColor=none;align=center;verticalAlign=middle;whiteSpace=wrap;rounded=0;" parent="1" vertex="1">
          <mxGeometry x="-130" y="-170" width="60" height="30" as="geometry" />
        </mxCell>
        <mxCell id="TzvrdUyDiU6Etpf87pun-66" value="M" style="text;html=1;strokeColor=none;fillColor=none;align=center;verticalAlign=middle;whiteSpace=wrap;rounded=0;" parent="1" vertex="1">
          <mxGeometry x="210" y="-170" width="60" height="30" as="geometry" />
        </mxCell>
        <mxCell id="ORGtoiL8IyqTiGa-rott-1" value="" style="endArrow=none;html=1;rounded=0;entryX=0.5;entryY=1;entryDx=0;entryDy=0;exitX=0.5;exitY=0;exitDx=0;exitDy=0;" parent="1" source="TzvrdUyDiU6Etpf87pun-38" target="TzvrdUyDiU6Etpf87pun-3" edge="1">
          <mxGeometry width="50" height="50" relative="1" as="geometry">
            <mxPoint x="30" y="70" as="sourcePoint" />
            <mxPoint x="80" y="20" as="targetPoint" />
          </mxGeometry>
        </mxCell>
        <mxCell id="ORGtoiL8IyqTiGa-rott-2" value="N" style="text;html=1;strokeColor=none;fillColor=none;align=center;verticalAlign=middle;whiteSpace=wrap;rounded=0;" parent="1" vertex="1">
          <mxGeometry x="210" y="40" width="60" height="30" as="geometry" />
        </mxCell>
        <mxCell id="ORGtoiL8IyqTiGa-rott-3" value="M" style="text;html=1;strokeColor=none;fillColor=none;align=center;verticalAlign=middle;whiteSpace=wrap;rounded=0;" parent="1" vertex="1">
          <mxGeometry x="300" y="-140" width="60" height="30" as="geometry" />
        </mxCell>
      </root>
    </mxGraphModel>
  </diagram>
</mxfile>
